<mxfile host="Electron" agent="Mozilla/5.0 (Windows NT 10.0; Win64; x64) AppleWebKit/537.36 (KHTML, like Gecko) draw.io/25.0.2 Chrome/128.0.6613.186 Electron/32.2.5 Safari/537.36" version="25.0.2">
  <diagram name="Page-1" id="gNev6hFkRwGhak0eGHsy">
    <mxGraphModel dx="819" dy="505" grid="1" gridSize="10" guides="1" tooltips="1" connect="1" arrows="1" fold="1" page="1" pageScale="1" pageWidth="850" pageHeight="1100" math="0" shadow="0">
      <root>
        <mxCell id="0" />
        <mxCell id="1" parent="0" />
        <mxCell id="enV2sVZHZ6h9R5w_pbeU-20" style="edgeStyle=orthogonalEdgeStyle;rounded=0;orthogonalLoop=1;jettySize=auto;html=1;entryX=1;entryY=0.88;entryDx=0;entryDy=0;endArrow=none;endFill=0;fillColor=#f8cecc;strokeColor=#b85450;" parent="1" source="enV2sVZHZ6h9R5w_pbeU-6" target="enV2sVZHZ6h9R5w_pbeU-19" edge="1">
          <mxGeometry relative="1" as="geometry" />
        </mxCell>
        <mxCell id="enV2sVZHZ6h9R5w_pbeU-39" style="edgeStyle=orthogonalEdgeStyle;rounded=0;orthogonalLoop=1;jettySize=auto;html=1;dashed=1;fillColor=#dae8fc;strokeColor=#6c8ebf;" parent="1" source="enV2sVZHZ6h9R5w_pbeU-6" target="enV2sVZHZ6h9R5w_pbeU-8" edge="1">
          <mxGeometry relative="1" as="geometry">
            <Array as="points">
              <mxPoint x="50" y="300" />
              <mxPoint x="50" y="540" />
              <mxPoint x="380" y="540" />
            </Array>
          </mxGeometry>
        </mxCell>
        <mxCell id="enV2sVZHZ6h9R5w_pbeU-6" value="Entrada solar" style="rounded=0;whiteSpace=wrap;html=1;" parent="1" vertex="1">
          <mxGeometry x="80" y="280" width="80" height="40" as="geometry" />
        </mxCell>
        <mxCell id="enV2sVZHZ6h9R5w_pbeU-37" style="edgeStyle=orthogonalEdgeStyle;rounded=0;orthogonalLoop=1;jettySize=auto;html=1;dashed=1;fillColor=#dae8fc;strokeColor=#6c8ebf;" parent="1" source="enV2sVZHZ6h9R5w_pbeU-7" target="enV2sVZHZ6h9R5w_pbeU-8" edge="1">
          <mxGeometry relative="1" as="geometry" />
        </mxCell>
        <mxCell id="enV2sVZHZ6h9R5w_pbeU-7" value="Cargador baterías" style="rounded=0;whiteSpace=wrap;html=1;" parent="1" vertex="1">
          <mxGeometry x="320" y="280" width="80" height="40" as="geometry" />
        </mxCell>
        <mxCell id="enV2sVZHZ6h9R5w_pbeU-34" style="edgeStyle=orthogonalEdgeStyle;rounded=0;orthogonalLoop=1;jettySize=auto;html=1;shape=link;dashed=1;fillColor=#dae8fc;strokeColor=#6c8ebf;" parent="1" source="enV2sVZHZ6h9R5w_pbeU-8" target="enV2sVZHZ6h9R5w_pbeU-28" edge="1">
          <mxGeometry relative="1" as="geometry" />
        </mxCell>
        <mxCell id="enV2sVZHZ6h9R5w_pbeU-8" value="Micro&lt;div&gt;controlador&lt;/div&gt;" style="rounded=0;whiteSpace=wrap;html=1;" parent="1" vertex="1">
          <mxGeometry x="320" y="460" width="80" height="40" as="geometry" />
        </mxCell>
        <mxCell id="enV2sVZHZ6h9R5w_pbeU-40" style="edgeStyle=orthogonalEdgeStyle;rounded=0;orthogonalLoop=1;jettySize=auto;html=1;entryX=0;entryY=0.75;entryDx=0;entryDy=0;dashed=1;fillColor=#dae8fc;strokeColor=#6c8ebf;" parent="1" source="enV2sVZHZ6h9R5w_pbeU-9" target="enV2sVZHZ6h9R5w_pbeU-8" edge="1">
          <mxGeometry relative="1" as="geometry">
            <Array as="points">
              <mxPoint x="160" y="490" />
              <mxPoint x="160" y="490" />
            </Array>
          </mxGeometry>
        </mxCell>
        <mxCell id="enV2sVZHZ6h9R5w_pbeU-9" value="Batería backup" style="rounded=0;whiteSpace=wrap;html=1;" parent="1" vertex="1">
          <mxGeometry x="80" y="460" width="80" height="40" as="geometry" />
        </mxCell>
        <mxCell id="enV2sVZHZ6h9R5w_pbeU-22" style="edgeStyle=orthogonalEdgeStyle;rounded=0;orthogonalLoop=1;jettySize=auto;html=1;entryX=0;entryY=0.5;entryDx=0;entryDy=0;fillColor=#f8cecc;strokeColor=#b85450;" parent="1" source="enV2sVZHZ6h9R5w_pbeU-19" target="enV2sVZHZ6h9R5w_pbeU-7" edge="1">
          <mxGeometry relative="1" as="geometry" />
        </mxCell>
        <mxCell id="enV2sVZHZ6h9R5w_pbeU-23" style="edgeStyle=orthogonalEdgeStyle;rounded=0;orthogonalLoop=1;jettySize=auto;html=1;entryX=0;entryY=0.5;entryDx=0;entryDy=0;fillColor=#f8cecc;strokeColor=#b85450;" parent="1" source="enV2sVZHZ6h9R5w_pbeU-19" target="enV2sVZHZ6h9R5w_pbeU-8" edge="1">
          <mxGeometry relative="1" as="geometry" />
        </mxCell>
        <mxCell id="enV2sVZHZ6h9R5w_pbeU-19" value="" style="html=1;shape=mxgraph.electrical.electro-mechanical.twoWaySwitch;aspect=fixed;elSwitchState=2;direction=west;fillColor=#f8cecc;strokeColor=#b85450;flipV=1;" parent="1" vertex="1">
          <mxGeometry x="200" y="330" width="75" height="26" as="geometry" />
        </mxCell>
        <mxCell id="enV2sVZHZ6h9R5w_pbeU-35" style="edgeStyle=orthogonalEdgeStyle;rounded=0;orthogonalLoop=1;jettySize=auto;html=1;shape=link;dashed=1;fillColor=#dae8fc;strokeColor=#6c8ebf;" parent="1" source="enV2sVZHZ6h9R5w_pbeU-28" target="enV2sVZHZ6h9R5w_pbeU-32" edge="1">
          <mxGeometry relative="1" as="geometry" />
        </mxCell>
        <mxCell id="enV2sVZHZ6h9R5w_pbeU-28" value="" style="sketch=0;verticalLabelPosition=bottom;sketch=0;aspect=fixed;html=1;verticalAlign=top;strokeColor=none;fillColor=#000000;align=center;outlineConnect=0;pointerEvents=1;shape=mxgraph.citrix2.wifi_router;" parent="1" vertex="1">
          <mxGeometry x="455.04" y="460" width="39.92" height="40" as="geometry" />
        </mxCell>
        <mxCell id="enV2sVZHZ6h9R5w_pbeU-29" value="Server" style="rounded=0;whiteSpace=wrap;html=1;verticalAlign=top;" parent="1" vertex="1">
          <mxGeometry x="555.04" y="380" width="80" height="120" as="geometry" />
        </mxCell>
        <mxCell id="enV2sVZHZ6h9R5w_pbeU-30" value="MQTT&lt;div&gt;Broker&lt;/div&gt;" style="rounded=0;whiteSpace=wrap;html=1;" parent="1" vertex="1">
          <mxGeometry x="570.04" y="450" width="50" height="40" as="geometry" />
        </mxCell>
        <mxCell id="enV2sVZHZ6h9R5w_pbeU-31" value="Dash&lt;div&gt;board&lt;/div&gt;" style="rounded=0;whiteSpace=wrap;html=1;" parent="1" vertex="1">
          <mxGeometry x="570.04" y="410" width="50" height="40" as="geometry" />
        </mxCell>
        <mxCell id="enV2sVZHZ6h9R5w_pbeU-32" value="Cliente" style="rounded=0;whiteSpace=wrap;html=1;verticalAlign=top;" parent="1" vertex="1">
          <mxGeometry x="425" y="361" width="100" height="70" as="geometry" />
        </mxCell>
        <mxCell id="enV2sVZHZ6h9R5w_pbeU-33" value="Navegador" style="rounded=0;whiteSpace=wrap;html=1;" parent="1" vertex="1">
          <mxGeometry x="435" y="391" width="80" height="30" as="geometry" />
        </mxCell>
        <mxCell id="enV2sVZHZ6h9R5w_pbeU-36" style="edgeStyle=orthogonalEdgeStyle;rounded=0;orthogonalLoop=1;jettySize=auto;html=1;entryX=-0.003;entryY=0.835;entryDx=0;entryDy=0;entryPerimeter=0;shape=link;dashed=1;fillColor=#dae8fc;strokeColor=#6c8ebf;" parent="1" source="enV2sVZHZ6h9R5w_pbeU-28" target="enV2sVZHZ6h9R5w_pbeU-29" edge="1">
          <mxGeometry relative="1" as="geometry" />
        </mxCell>
        <mxCell id="enV2sVZHZ6h9R5w_pbeU-41" value="" style="rounded=0;whiteSpace=wrap;html=1;" parent="1" vertex="1">
          <mxGeometry x="515.04" y="280" width="120" height="60" as="geometry" />
        </mxCell>
        <mxCell id="auPJIwlNygDnN5gP8zEC-5" style="edgeStyle=orthogonalEdgeStyle;rounded=0;orthogonalLoop=1;jettySize=auto;html=1;endArrow=none;endFill=0;fillColor=#f8cecc;strokeColor=#b85450;" edge="1" parent="1">
          <mxGeometry relative="1" as="geometry">
            <Array as="points">
              <mxPoint x="119.46000000000004" y="450" />
              <mxPoint x="119.46000000000004" y="450" />
            </Array>
            <mxPoint x="119.5" y="460" as="sourcePoint" />
            <mxPoint x="119.5" y="410" as="targetPoint" />
          </mxGeometry>
        </mxCell>
        <mxCell id="enV2sVZHZ6h9R5w_pbeU-43" value="" style="endArrow=none;dashed=1;html=1;rounded=0;fillColor=#dae8fc;strokeColor=#6c8ebf;" parent="1" edge="1">
          <mxGeometry width="50" height="50" relative="1" as="geometry">
            <mxPoint x="525.04" y="293" as="sourcePoint" />
            <mxPoint x="625.04" y="293" as="targetPoint" />
          </mxGeometry>
        </mxCell>
        <mxCell id="enV2sVZHZ6h9R5w_pbeU-44" value="Datos" style="edgeLabel;html=1;align=center;verticalAlign=middle;resizable=0;points=[];fontColor=#7EA6E0;" parent="enV2sVZHZ6h9R5w_pbeU-43" vertex="1" connectable="0">
          <mxGeometry x="0.329" relative="1" as="geometry">
            <mxPoint x="-16" y="-1" as="offset" />
          </mxGeometry>
        </mxCell>
        <mxCell id="enV2sVZHZ6h9R5w_pbeU-45" value="" style="endArrow=none;dashed=1;html=1;rounded=0;fillColor=#f8cecc;strokeColor=#b85450;" parent="1" edge="1">
          <mxGeometry width="50" height="50" relative="1" as="geometry">
            <mxPoint x="525.04" y="310" as="sourcePoint" />
            <mxPoint x="625.04" y="310" as="targetPoint" />
          </mxGeometry>
        </mxCell>
        <mxCell id="enV2sVZHZ6h9R5w_pbeU-46" value="Alimentación" style="edgeLabel;html=1;align=center;verticalAlign=middle;resizable=0;points=[];fontColor=#EA6B66;" parent="enV2sVZHZ6h9R5w_pbeU-45" vertex="1" connectable="0">
          <mxGeometry x="0.329" relative="1" as="geometry">
            <mxPoint x="-16" y="-1" as="offset" />
          </mxGeometry>
        </mxCell>
        <mxCell id="auPJIwlNygDnN5gP8zEC-1" value="" style="html=1;shape=mxgraph.electrical.electro-mechanical.twoWaySwitch;aspect=fixed;elSwitchState=2;direction=north;fillColor=#f8cecc;strokeColor=#b85450;" vertex="1" parent="1">
          <mxGeometry x="107" y="356" width="26" height="75" as="geometry" />
        </mxCell>
        <mxCell id="auPJIwlNygDnN5gP8zEC-4" style="edgeStyle=orthogonalEdgeStyle;rounded=0;orthogonalLoop=1;jettySize=auto;html=1;endArrow=none;endFill=0;fillColor=#f8cecc;strokeColor=#b85450;" edge="1" parent="1">
          <mxGeometry relative="1" as="geometry">
            <Array as="points">
              <mxPoint x="109.96000000000004" y="360" />
              <mxPoint x="109.96000000000004" y="360" />
            </Array>
            <mxPoint x="110" y="370" as="sourcePoint" />
            <mxPoint x="110" y="320" as="targetPoint" />
          </mxGeometry>
        </mxCell>
        <mxCell id="auPJIwlNygDnN5gP8zEC-6" style="edgeStyle=orthogonalEdgeStyle;rounded=0;orthogonalLoop=1;jettySize=auto;html=1;endArrow=none;endFill=0;fillColor=#f8cecc;strokeColor=#b85450;entryX=1;entryY=0.12;entryDx=0;entryDy=0;exitX=1;exitY=0.25;exitDx=0;exitDy=0;" edge="1" parent="1" source="enV2sVZHZ6h9R5w_pbeU-9" target="enV2sVZHZ6h9R5w_pbeU-19">
          <mxGeometry relative="1" as="geometry">
            <Array as="points">
              <mxPoint x="180" y="470" />
              <mxPoint x="180" y="353" />
            </Array>
            <mxPoint x="180" y="470" as="sourcePoint" />
            <mxPoint x="180" y="350" as="targetPoint" />
          </mxGeometry>
        </mxCell>
        <mxCell id="auPJIwlNygDnN5gP8zEC-7" value="" style="endArrow=none;dashed=1;html=1;rounded=0;fillColor=#60a917;strokeColor=#2D7600;" edge="1" parent="1">
          <mxGeometry width="50" height="50" relative="1" as="geometry">
            <mxPoint x="60" y="530" as="sourcePoint" />
            <mxPoint x="360" y="530" as="targetPoint" />
          </mxGeometry>
        </mxCell>
        <mxCell id="auPJIwlNygDnN5gP8zEC-8" value="" style="endArrow=none;dashed=1;html=1;rounded=0;fillColor=#60a917;strokeColor=#2D7600;" edge="1" parent="1">
          <mxGeometry width="50" height="50" relative="1" as="geometry">
            <mxPoint x="340" y="520" as="sourcePoint" />
            <mxPoint x="340" y="500" as="targetPoint" />
          </mxGeometry>
        </mxCell>
        <mxCell id="auPJIwlNygDnN5gP8zEC-9" value="" style="endArrow=none;dashed=1;html=1;rounded=0;fillColor=#60a917;strokeColor=#2D7600;entryX=0.5;entryY=1;entryDx=0;entryDy=0;" edge="1" parent="1" target="enV2sVZHZ6h9R5w_pbeU-8">
          <mxGeometry width="50" height="50" relative="1" as="geometry">
            <mxPoint x="359.86" y="530" as="sourcePoint" />
            <mxPoint x="360" y="510" as="targetPoint" />
          </mxGeometry>
        </mxCell>
        <mxCell id="auPJIwlNygDnN5gP8zEC-10" value="" style="endArrow=none;dashed=1;html=1;rounded=0;fillColor=#60a917;strokeColor=#2D7600;" edge="1" parent="1">
          <mxGeometry width="50" height="50" relative="1" as="geometry">
            <mxPoint x="60" y="530" as="sourcePoint" />
            <mxPoint x="60" y="400" as="targetPoint" />
          </mxGeometry>
        </mxCell>
        <mxCell id="auPJIwlNygDnN5gP8zEC-11" value="" style="endArrow=classic;dashed=1;html=1;rounded=0;fillColor=#60a917;strokeColor=#2D7600;endFill=1;" edge="1" parent="1">
          <mxGeometry width="50" height="50" relative="1" as="geometry">
            <mxPoint x="60" y="399.43" as="sourcePoint" />
            <mxPoint x="110" y="399.43" as="targetPoint" />
          </mxGeometry>
        </mxCell>
        <mxCell id="auPJIwlNygDnN5gP8zEC-12" value="" style="endArrow=classic;dashed=1;html=1;rounded=0;fillColor=#60a917;strokeColor=#2D7600;endFill=1;" edge="1" parent="1">
          <mxGeometry width="50" height="50" relative="1" as="geometry">
            <mxPoint x="240" y="520" as="sourcePoint" />
            <mxPoint x="240" y="350" as="targetPoint" />
          </mxGeometry>
        </mxCell>
        <mxCell id="auPJIwlNygDnN5gP8zEC-13" value="" style="endArrow=none;dashed=1;html=1;rounded=0;fillColor=#60a917;strokeColor=#2D7600;" edge="1" parent="1">
          <mxGeometry width="50" height="50" relative="1" as="geometry">
            <mxPoint x="240" y="520" as="sourcePoint" />
            <mxPoint x="340" y="520" as="targetPoint" />
          </mxGeometry>
        </mxCell>
        <mxCell id="auPJIwlNygDnN5gP8zEC-14" value="" style="endArrow=none;dashed=1;html=1;rounded=0;fillColor=#60a917;strokeColor=#2D7600;" edge="1" parent="1">
          <mxGeometry width="50" height="50" relative="1" as="geometry">
            <mxPoint x="525.04" y="326.71000000000004" as="sourcePoint" />
            <mxPoint x="625.04" y="326.71000000000004" as="targetPoint" />
          </mxGeometry>
        </mxCell>
        <mxCell id="auPJIwlNygDnN5gP8zEC-15" value="Relés" style="edgeLabel;html=1;align=center;verticalAlign=middle;resizable=0;points=[];fontColor=#03a016;" vertex="1" connectable="0" parent="auPJIwlNygDnN5gP8zEC-14">
          <mxGeometry x="0.329" relative="1" as="geometry">
            <mxPoint x="-16" y="-1" as="offset" />
          </mxGeometry>
        </mxCell>
      </root>
    </mxGraphModel>
  </diagram>
</mxfile>
